<svg xmlns="http://www.w3.org/2000/svg" xmlns:xlink="http://www.w3.org/1999/xlink" width="708" height="462" xmlns:v="https://vecta.io/nano"><style><![CDATA[.B{fill-rule:nonzero}.C{fill:#18538a}.D{stroke:#18538a}.E{stroke-linejoin:round}.F{fill:#000}.G{stroke-linecap:round}.H{fill:#bad3ec}.I{font-family:Helvetica}.J{font-size:12px}.K{stroke-width:3}.L{stroke-dasharray:15.21}]]></style><g fill="none" fill-rule="evenodd"><g stroke-width="2" class="D E G"><path d="M201.5 427.1H194"/><path stroke-dasharray="14.23" d="M179.77 427.1H16.12"/><path d="M9 427.1H1.5v-7.5"/><path d="M1.5 404.39V16.6" class="L"/><path d="M1.5 9V1.5H9"/><path stroke-dasharray="14.69" d="M23.69 1.5h668.3"/><path d="M699.33 1.5h7.5V9"/><path d="M706.83 24.21V412" class="L"/><path d="M706.83 419.6v7.5h-7.5"/><path stroke-dasharray="14.28" d="M685.04 427.1H520.77"/><path d="M513.63 427.1h-7.5"/></g><path d="M511.59 285.72c7.44 9.447 6.027 23.097-3.19 30.82h11.29v-30.82h-8.1zm-17.47-8.48a22.14 22.14 0 0 1 14.32 5.23v-8.59h-31.33v11.27a22.19 22.19 0 0 1 17.01-7.91h0zm0 44.49c-12.283 0-22.24-9.957-22.24-22.24a22.8 22.8 0 0 1 .51-4.78h-4.26v30.65h30.65v-4.12a22.32 22.32 0 0 1-4.66.49z" class="B H"/><g class="C B"><path d="M474.26 290.8a1.36 1.36 0 0 1-1.35-1.35V270.7a1.35 1.35 0 0 1 1.35-1.35h37a1.34 1.34 0 0 1 1.35 1.35v13.75a1.35 1.35 0 1 1-2.7 0v-12.4h-34.3v17.4a1.35 1.35 0 0 1-1.35 1.35z"/><path d="M522.61 321.15h-19.42a1.35 1.35 0 0 1 0-2.7h18.07V284.1h-11.75a1.35 1.35 0 1 1 0-2.7h13.1a1.35 1.35 0 0 1 1.35 1.35v37.05a1.36 1.36 0 0 1-1.35 1.35z"/><path d="M501.98 329.91h-37.05a1.34 1.34 0 0 1-1.35-1.35v-37.05a1.34 1.34 0 0 1 1.35-1.35h7.92a1.35 1.35 0 1 1 0 2.7h-6.57v34.35h34.35v-6.22a1.35 1.35 0 1 1 2.7 0v7.57a1.34 1.34 0 0 1-1.35 1.35z"/><use xlink:href="#B"/><circle cx="494.12" cy="286.16" r="1.71"/><circle cx="494.12" cy="315.12" r="1.71"/><circle cx="480.6" cy="299.49" r="1.71"/><circle cx="507.83" cy="299.49" r="1.71"/><path d="M494.12 303.98a4.5 4.5 0 0 1-3.192-7.682 4.5 4.5 0 0 1 7.682 3.192 4.5 4.5 0 0 1-4.49 4.49zm0-6.29a1.8 1.8 0 0 0-1.286 3.069 1.8 1.8 0 0 0 3.076-1.269 1.8 1.8 0 0 0-1.79-1.8h0z"/><use xlink:href="#C"/><use xlink:href="#D"/></g><circle cx="640.14" cy="297.46" r="24.56" class="B H"/><g class="C B"><path d="M640.14 325.58a28.12 28.12 0 1 1 28.11-28.12c-.017 15.519-12.591 28.098-28.11 28.12h0zm0-52.68a24.56 24.56 0 1 0 24.56 24.56c-.011-13.56-11-24.549-24.56-24.56h0zm0 42.03a17.47 17.47 0 1 1 17.46-17.47c-.011 9.64-7.82 17.453-17.46 17.47zm0-31.38c-7.682 0-13.91 6.228-13.91 13.91s6.228 13.91 13.91 13.91 13.91-6.228 13.91-13.91c-.011-7.678-6.232-13.899-13.91-13.91z"/><circle cx="640.14" cy="297.46" r="5.13"/></g><path d="M669.95 318.23l-14.38-8.31a1.27 1.27 0 0 0-1.9 1.1v16.61a1.27 1.27 0 0 0 1.9 1.09l14.38-8.3a1.26 1.26 0 0 0 0-2.19h0z" fill="#fff" class="B"/><path d="M655.17 329.91a2.68 2.68 0 0 1-2.68-2.69v-15.8a2.68 2.68 0 0 1 4-2.32l13.69 7.9a2.64 2.64 0 0 1 1.34 2.32 2.67 2.67 0 0 1-1.34 2.33l-13.67 7.9a2.7 2.7 0 0 1-1.34.36h0zm0-18.8a.33.33 0 0 0-.15 0 .28.28 0 0 0-.16.27v15.8a.29.29 0 0 0 .15.27.28.28 0 0 0 .32 0l13.68-7.9a.29.29 0 0 0 .16-.27.31.31 0 0 0-.16-.27l-13.68-7.9a.34.34 0 0 0-.16 0z" class="B C"/><path d="M252.74 80.01h47.18" class="D E G K"/><path d="M289.98 92.28l-2.05-2.2 10.84-10.07-10.84-10.07 2.05-2.2 13.2 12.27z" class="B C"/><path d="M108.87 80.01h47.18" class="D E G K"/><path d="M146.11 92.28l-2.05-2.2 10.84-10.07-10.84-10.07 2.05-2.2 13.19 12.27z" class="B C"/><path d="M397.1 80.01h47.17" class="D E G K"/><use xlink:href="#E" class="B C"/><path d="M397.1 189.17h47.17" class="D E G K"/><use xlink:href="#E" y="109.16" class="B C"/><path d="M540.29 299.63h47.17" class="D E G K"/><use xlink:href="#E" x="143.19" y="219.62" class="B C"/><path stroke-width="2.77" d="M205.33 145.69v43.48h98.31" class="D E G"/><path d="M294.47 200.49l-1.89-2.03 10-9.29-10-9.29 1.89-2.03 12.18 11.32z" class="B C"/><path stroke-width="2.5" d="M348.41 254.78v44.85h92.65" class="D E G"/><g class="B"><path d="M432.79 309.84l-1.7-1.83 9.01-8.38-9.01-8.38 1.7-1.83 10.98 10.21z" class="C"/><g class="D E H K"><path style="mix-blend-mode:multiply" d="M43.14 49.93h36.95v36.95H43.14z"/><path style="mix-blend-mode:multiply" d="M54.43 61.94h36.95v36.95H54.43z"/><path style="mix-blend-mode:multiply" d="M33.89 70.65h36.95v36.95H33.89z"/></g><path d="M224.85 64.86c7.456 9.443 6.042 23.105-3.19 30.82h11.29V64.86h-8.1zm-17.47-8.48a22.17 22.17 0 0 1 14.33 5.23v-8.58h-31.33v11.26a22.2 22.2 0 0 1 17-7.91h0zm0 44.49a22.24 22.24 0 0 1-21.72-27h-4.26v30.63h30.64v-4.12a22.32 22.32 0 0 1-4.66.49h0z" class="H"/><g class="C"><path d="M187.51 69.94a1.35 1.35 0 0 1-1.35-1.35V49.8a1.35 1.35 0 0 1 1.35-1.31h37a1.36 1.36 0 0 1 1.4 1.31v13.79a1.35 1.35 0 0 1-2.025 1.169 1.35 1.35 0 0 1-.675-1.169v-12.4h-34.33v17.4a1.36 1.36 0 0 1-1.37 1.35h0z"/><path d="M235.87 100.29h-19.36a1.35 1.35 0 1 1 0-2.7h18V63.24H222.8a1.35 1.35 0 1 1 0-2.7h13.07a1.34 1.34 0 0 1 1.35 1.35v37.05a1.34 1.34 0 0 1-1.35 1.35z"/><path d="M215.25 109.05h-37.06a1.35 1.35 0 0 1-1.35-1.35V70.65a1.35 1.35 0 0 1 1.35-1.35h7.93a1.35 1.35 0 1 1 0 2.7h-6.61v34.35h34.36v-6.22a1.35 1.35 0 0 1 2.7 0v7.57a1.35 1.35 0 0 1-1.32 1.35z"/><path d="M207.38 102.22a23.6 23.6 0 0 1-16.684-40.291A23.6 23.6 0 0 1 230.98 78.63c-.011 13.028-10.572 23.584-23.6 23.59h0zm0-44.49c-11.543 0-20.9 9.357-20.9 20.9s9.357 20.9 20.9 20.9 20.9-9.357 20.9-20.9c-.011-11.538-9.362-20.889-20.9-20.9h0z"/><circle cx="207.38" cy="65.3" r="1.71"/><circle cx="207.38" cy="94.26" r="1.71"/><circle cx="193.86" cy="78.63" r="1.71"/><circle cx="221.1" cy="78.63" r="1.71"/><use xlink:href="#F"/><path d="M209.51 77.8a1.34 1.34 0 0 1-1-.4 1.36 1.36 0 0 1 0-1.91l9.86-9.85a1.35 1.35 0 0 1 1.91 0 1.36 1.36 0 0 1 0 1.91l-9.77 9.84a1.32 1.32 0 0 1-1 .41h0zm7.55 13a1.37 1.37 0 0 1-1-.39L208 82.34a1.35 1.35 0 0 1 0-1.91 1.36 1.36 0 0 1 1.91 0l8.06 8.07a1.35 1.35 0 0 1-.95 2.3h.04z"/></g><path d="M366.17 64.86c7.443 9.448 6.025 23.102-3.2 30.82h11.29V64.86h-8.09zm-17.47-8.48a22.16 22.16 0 0 1 14.32 5.23v-8.58h-31.33v11.26a22.21 22.21 0 0 1 17.01-7.91h0zm0 44.49a22.24 22.24 0 0 1-21.73-27h-4.26v30.63h30.65v-4.12a22.4 22.4 0 0 1-4.66.49h0z" class="H"/><g class="C"><path d="M328.84 69.94a1.36 1.36 0 0 1-1.33-1.35V49.8a1.36 1.36 0 0 1 1.35-1.35h37a1.35 1.35 0 0 1 1.36 1.35v13.79a1.35 1.35 0 1 1-2.7 0v-12.4h-34.33v17.4a1.35 1.35 0 0 1-1.35 1.35z"/><path d="M377.19 100.29h-19.42a1.35 1.35 0 1 1 0-2.7h18.07V63.24h-11.72a1.35 1.35 0 1 1 0-2.7h13.07a1.35 1.35 0 0 1 1.32 1.35v37.05a1.35 1.35 0 0 1-1.32 1.35h0z"/><path d="M356.56 109.05h-37.05a1.34 1.34 0 0 1-1.35-1.35V70.65a1.34 1.34 0 0 1 1.35-1.35h7.92a1.35 1.35 0 1 1 0 2.7h-6.57v34.35h34.35v-6.22a1.35 1.35 0 1 1 2.7 0v7.57a1.34 1.34 0 0 1-1.35 1.35z"/><path d="M348.7 102.22a23.6 23.6 0 0 1-16.698-40.288A23.6 23.6 0 0 1 372.29 78.63c-.017 13.022-10.568 23.573-23.59 23.59h0zm0-44.49a20.9 20.9 0 0 0-14.792 35.675A20.9 20.9 0 0 0 369.59 78.63c-.017-11.532-9.358-20.878-20.89-20.9h0z"/><circle cx="348.7" cy="65.3" r="1.71"/><circle cx="348.7" cy="94.26" r="1.71"/><circle cx="335.18" cy="78.63" r="1.71"/><circle cx="362.41" cy="78.63" r="1.71"/><path d="M348.7 83.12a4.49 4.49 0 0 1 0-8.98 4.49 4.49 0 0 1 4.49 4.49 4.5 4.5 0 0 1-4.49 4.49h0zm0-6.28a1.79 1.79 0 0 0 .027 3.58 1.79 1.79 0 0 0 1.783-1.79 1.79 1.79 0 0 0-1.81-1.83v.04z"/><use xlink:href="#C" x="-145.42" y="-220.85"/><path d="M358.37 90.8a1.35 1.35 0 0 1-.95-.39l-8.07-8.07a1.35 1.35 0 0 1 0-1.91 1.36 1.36 0 0 1 1.91 0l8.07 8.07a1.35 1.35 0 0 1-1 2.3h.04z"/></g><path d="M511.59 64.86c7.44 9.447 6.027 23.097-3.19 30.82h11.29V64.86h-8.1zm-17.47-8.48a22.14 22.14 0 0 1 14.32 5.23v-8.58h-31.33v11.26a22.22 22.22 0 0 1 17.01-7.91zm0 44.49c-12.283 0-22.24-9.957-22.24-22.24a22.8 22.8 0 0 1 .51-4.78h-4.26v30.65h30.65v-4.12a22.32 22.32 0 0 1-4.66.49h0z" class="H"/><g class="C"><path d="M474.27 69.94a1.35 1.35 0 0 1-1.35-1.35V49.8a1.35 1.35 0 0 1 1.35-1.35h37a1.35 1.35 0 0 1 1.37 1.35v13.79a1.35 1.35 0 1 1-2.7 0v-12.4h-34.32v17.4a1.36 1.36 0 0 1-1.35 1.35h0z"/><path d="M522.61 100.29h-19.42a1.35 1.35 0 1 1 0-2.7h18.07V63.24h-11.75a1.35 1.35 0 1 1 0-2.7h13.1a1.34 1.34 0 0 1 1.35 1.35v37.05a1.34 1.34 0 0 1-1.35 1.35z"/><path d="M501.98 109.05h-37.05a1.35 1.35 0 0 1-1.35-1.35V70.65a1.35 1.35 0 0 1 1.35-1.35h7.92a1.35 1.35 0 1 1 0 2.7h-6.57v34.35h34.35v-6.22a1.35 1.35 0 1 1 2.7 0v7.57a1.34 1.34 0 0 1-1.35 1.35z"/><path d="M494.12 102.22a23.6 23.6 0 0 1-16.698-40.288A23.6 23.6 0 0 1 517.71 78.63c-.011 13.024-10.566 23.579-23.59 23.59h0zm0-44.49a20.9 20.9 0 0 0-14.792 35.675A20.9 20.9 0 0 0 515.01 78.63c-.011-11.534-9.356-20.883-20.89-20.9z"/><circle cx="494.12" cy="65.3" r="1.71"/><circle cx="494.12" cy="94.26" r="1.71"/><circle cx="480.6" cy="78.63" r="1.71"/><circle cx="507.83" cy="78.63" r="1.71"/><use xlink:href="#F" x="286.74"/><path d="M496.27 77.8a1.32 1.32 0 0 1-.95-.4 1.35 1.35 0 0 1 0-1.91l9.85-9.85a1.35 1.35 0 1 1 1.91 1.91l-9.85 9.85a1.32 1.32 0 0 1-.96.4h0zm7.53 13a1.35 1.35 0 0 1-1-.39l-8.06-8.07a1.35 1.35 0 0 1 1.9-1.91l8.07 8.07a1.35 1.35 0 0 1-1 2.3h.09z"/></g><path d="M368.68 175.26c7.443 9.448 6.025 23.102-3.2 30.82h11.29v-30.82h-8.09zm-17.47-8.46a22.16 22.16 0 0 1 14.3 5.21v-8.59H334.2v11.27a22.18 22.18 0 0 1 17.01-7.89zm0 44.47a22.24 22.24 0 0 1-21.73-27h-4.26v30.63h30.65v-4.1a22.32 22.32 0 0 1-4.66.47h0z" class="H"/><g class="C"><path d="M331.35 180.34a1.36 1.36 0 0 1-1.35-1.35v-18.75a1.35 1.35 0 0 1 1.35-1.35h37a1.34 1.34 0 0 1 1.35 1.35v13.75a1.35 1.35 0 1 1-2.7 0v-12.4h-34.3v17.4a1.35 1.35 0 0 1-1.35 1.35z"/><path d="M379.7 210.69h-19.42a1.35 1.35 0 0 1-1.169-2.025 1.35 1.35 0 0 1 1.169-.675h18.07v-34.35h-11.72a1.35 1.35 0 0 1 0-2.7h13.07a1.35 1.35 0 0 1 1.35 1.35v37a1.36 1.36 0 0 1-1.35 1.4h0z"/><path d="M359.07 219.45h-37.05a1.34 1.34 0 0 1-1.35-1.35v-37.05a1.34 1.34 0 0 1 1.35-1.35h7.92a1.35 1.35 0 1 1 0 2.7h-6.57v34.4h34.35v-6.22a1.35 1.35 0 0 1 2.7 0v7.57a1.34 1.34 0 0 1-1.35 1.3h0z"/><path d="M351.21 212.62a23.6 23.6 0 0 1-16.698-40.288A23.6 23.6 0 0 1 374.8 189.03c-.022 13.019-10.571 23.568-23.59 23.59h0zm0-44.49a20.9 20.9 0 0 0-14.792 35.675A20.9 20.9 0 0 0 372.1 189.03c-.011-11.534-9.356-20.883-20.89-20.9h0z"/><circle cx="351.21" cy="175.7" r="1.71"/><circle cx="351.21" cy="204.66" r="1.71"/><circle cx="337.69" cy="189.02" r="1.71"/><circle cx="364.92" cy="189.02" r="1.71"/><path d="M351.21 193.52a4.5 4.5 0 0 1-3.192-7.682 4.5 4.5 0 0 1 7.682 3.192 4.5 4.5 0 0 1-4.49 4.49h0zm0-6.29a1.8 1.8 0 0 0-1.286 3.069A1.8 1.8 0 0 0 353 189.03a1.8 1.8 0 0 0-1.79-1.8h0z"/><path d="M353.36 188.19a1.32 1.32 0 0 1-1-.4 1.35 1.35 0 0 1 0-1.91l9.85-9.85a1.35 1.35 0 1 1 1.91 1.91l-9.8 9.86a1.34 1.34 0 0 1-.96.39zm7.52 12.98a1.35 1.35 0 0 1-.95-.39l-8.07-8.07a1.351 1.351 0 1 1 1.91-1.91l8.07 8.07a1.35 1.35 0 0 1-1 2.3h.04z"/></g><path d="M511.59 175.26c7.44 9.447 6.027 23.097-3.19 30.82h11.29v-30.82h-8.1zm-17.47-8.46a22.14 22.14 0 0 1 14.32 5.23v-8.59h-31.33v11.27a22.19 22.19 0 0 1 17.01-7.91zm0 44.47a22.24 22.24 0 0 1-22.24-22.25 22.78 22.78 0 0 1 .51-4.77h-4.26v30.65h30.65v-4.1a22.32 22.32 0 0 1-4.66.47z" class="H"/><g class="C"><path d="M474.26 180.34a1.36 1.36 0 0 1-1.35-1.35v-18.75a1.35 1.35 0 0 1 1.35-1.35h37a1.34 1.34 0 0 1 1.35 1.35v13.75a1.35 1.35 0 1 1-2.7 0v-12.4h-34.3v17.4a1.35 1.35 0 0 1-1.35 1.35h0z"/><path d="M522.61 210.69h-19.42a1.35 1.35 0 0 1 0-2.7h18.07v-34.35h-11.75a1.35 1.35 0 0 1 0-2.7h13.1a1.35 1.35 0 0 1 1.35 1.35v37a1.36 1.36 0 0 1-1.35 1.4h0z"/><path d="M501.98 219.45h-37.05a1.34 1.34 0 0 1-1.35-1.35v-37.05a1.34 1.34 0 0 1 1.35-1.35h7.92a1.35 1.35 0 0 1 1.169 2.025 1.35 1.35 0 0 1-1.169.675h-6.57v34.4h34.35v-6.22a1.35 1.35 0 0 1 2.7 0v7.57a1.34 1.34 0 0 1-1.35 1.3h0z"/><use xlink:href="#B" y="-110.46"/><circle cx="494.12" cy="175.7" r="1.71"/><circle cx="494.12" cy="204.66" r="1.71"/><circle cx="480.6" cy="189.02" r="1.71"/><circle cx="507.83" cy="189.02" r="1.71"/><path d="M494.12 193.52a4.5 4.5 0 0 1-3.192-7.682 4.5 4.5 0 0 1 7.682 3.192 4.5 4.5 0 0 1-4.49 4.49h0zm0-6.29a1.8 1.8 0 0 0-1.286 3.069 1.8 1.8 0 0 0 3.076-1.269 1.8 1.8 0 0 0-1.79-1.8h0z"/><path d="M496.27 188.19a1.32 1.32 0 0 1-.95-.4 1.35 1.35 0 0 1 0-1.91l9.85-9.85a1.35 1.35 0 1 1 1.91 1.91l-9.85 9.86a1.34 1.34 0 0 1-.96.39z"/><use xlink:href="#D" y="-110.46"/></g></g><rect stroke-width="1.9" x="201.5" y="393.93" width="304.63" height="66.17" rx="4" class="D"/><g class="B"><path d="M307.51 417.28a10.06 10.06 0 0 0 4.36 1.08c1.81 0 2.77-.75 2.77-1.88s-.83-1.71-2.92-2.46c-2.89-1-4.78-2.61-4.78-5.14 0-3 2.48-5.24 6.58-5.24a10.78 10.78 0 0 1 4.45.88l-.88 3.18a8.23 8.23 0 0 0-3.64-.83c-1.71 0-2.53.78-2.53 1.68 0 1.11 1 1.6 3.22 2.45 3.08 1.14 4.52 2.74 4.52 5.19 0 2.92-2.24 5.4-7 5.4a11.4 11.4 0 0 1-4.93-1.06l.78-3.25zm17.71-12.09a2 2 0 0 1-2.11 2 2 2 0 1 1 0-4 2 2 0 0 1 2.11 2zm-4 16.14V408.7h3.92v12.63h-3.92zm11.41-16.24v3.61h2.82v2.9h-2.82v4.57c0 1.52.36 2.22 1.55 2.22a6.4 6.4 0 0 0 1.16-.11v3a7.63 7.63 0 0 1-2.56.34 4.07 4.07 0 0 1-2.94-1.09 5.24 5.24 0 0 1-1.08-3.74v-5.19h-1.65v-2.9h1.68v-2.73l3.84-.88zm7.98 11.18c.13 1.63 1.73 2.4 3.56 2.4a11 11 0 0 0 3.49-.52l.51 2.66a12.36 12.36 0 0 1-4.57.78c-4.28 0-6.74-2.48-6.74-6.43 0-3.2 2-6.74 6.38-6.74 4.08 0 5.63 3.18 5.63 6.3a9.58 9.58 0 0 1-.13 1.55h-8.13zm4.62-2.69a2.27 2.27 0 0 0-2.22-2.55 2.59 2.59 0 0 0-2.43 2.55h4.65z" fill="#8dc63f"/><path d="M350.73 421.33v-2.38l2.16-2c3.67-3.28 5.45-5.16 5.5-7.12 0-1.37-.82-2.46-2.76-2.46a6.12 6.12 0 0 0-3.59 1.4l-1.11-2.82a9.35 9.35 0 0 1 5.5-1.73c3.8 0 5.89 2.22 5.89 5.27 0 2.81-2 5.06-4.47 7.23l-1.55 1.29v.05h6.33v3.23l-11.9.04zm19.98 0v-4h-7.44v-2.53l6.35-10.22h4.8v9.83h2v2.95h-2v4l-3.71-.03zm0-6.95v-3.71l.13-3.13h-.11l-1.55 3.13-2.24 3.66v.05h3.77zm9.57-5.68l1.23 2.1 1 1.88h.05l1-1.94 1.11-2h4.26l-4.16 6 4.21 6.61h-4.44l-1.27-2.27-1-1.91h-.07l-1 1.91-1.19 2.27h-4.31l4.29-6.43-4.19-6.2 4.48-.02zm20.66-4.15v2.48l-6.92 14.3h-4.16l6.92-13.5v-.03h-7.7v-3.22z" class="F"/></g><text class="F I J"><tspan x="599.974" y="350">Usted está aquí</tspan></text><text font-family="Helvetica-Bold, Helvetica" font-size="16" font-weight="bold" class="C"><tspan x="208.637" y="445">Monitoreo de instantáneas de VMware</tspan></text><text class="F I J"><tspan x="29.988" y="130">VM principal</tspan><tspan x="167.293" y="130">Instantánea_1_0</tspan><tspan x="306.293" y="130">Instantánea_1_1</tspan><tspan x="451.293" y="130">Instantánea_1_2</tspan><tspan x="303.293" y="239">Instantánea_2_0</tspan><tspan x="451.293" y="237">Instantánea_2_1</tspan><tspan x="453.293" y="350">Instantánea_3_0</tspan></text></g><defs ><path id="B" d="M494.12 323.08a23.6 23.6 0 0 1-16.698-40.288 23.6 23.6 0 0 1 40.288 16.698c-.017 13.022-10.568 23.573-23.59 23.59h0zm0-44.49a20.9 20.9 0 0 0-14.792 35.675 20.9 20.9 0 0 0 35.682-14.775c-.006-11.537-9.353-20.889-20.89-20.9h0z"/><path id="C" d="M496.27 298.65a1.32 1.32 0 0 1-.95-.4 1.35 1.35 0 0 1 0-1.91l9.85-9.85a1.35 1.35 0 1 1 1.91 1.91l-9.85 9.85a1.34 1.34 0 0 1-.96.4z"/><path id="D" d="M503.79 311.63a1.35 1.35 0 0 1-.95-.39l-8.07-8.07a1.35 1.35 0 1 1 1.91-1.91l8.07 8.07a1.35 1.35 0 0 1 0 1.91 1.37 1.37 0 0 1-.96.39h0z"/><path id="E" d="M434.33 92.28l-2.04-2.2 10.83-10.07-10.83-10.07 2.04-2.2 13.2 12.27z"/><path id="F" d="M207.38 83.12a4.49 4.49 0 0 1 0-8.98 4.49 4.49 0 0 1 4.49 4.49 4.5 4.5 0 0 1-4.49 4.49h0zm0-6.28a1.79 1.79 0 0 0 0 3.58 1.79 1.79 0 0 0 1.79-1.79 1.79 1.79 0 0 0-1.79-1.83v.04z"/></defs></svg>